# 3ds Max Wavefront OBJ Exporter v0.97b - (c)2007 guruware
# File Created: 27.10.2018 01:25:51

#
# object Katana_LODC
#

v  -0.9390 7.4649 0.5423
v  -0.5421 7.4650 0.9393
v  0.5424 7.4650 0.9393
v  0.9394 7.4649 0.5423
v  1.0848 7.4651 -0.0001
v  -1.0844 7.4651 -0.0001
v  0.0003 7.4651 -1.0847
v  -0.5421 7.4650 -0.9395
v  0.5424 7.4650 -0.9395
v  -0.9390 7.4649 -0.5424
v  0.9394 7.4649 -0.5424
v  -1.0038 -9.0162 -0.0001
v  -0.8693 -9.0163 -0.5021
v  0.8697 -9.0163 -0.5021
v  1.0042 -9.0162 -0.0001
v  1.1026 7.1462 -0.0001
v  0.9548 7.1461 -0.5512
v  -1.1022 7.1462 -0.0001
v  -0.9546 7.1460 0.5512
v  -0.9546 6.8016 -0.5514
v  -1.1022 6.8015 -0.0001
v  -0.9546 7.1461 -0.5512
v  0.0003 7.4651 1.0847
v  0.0003 -9.0162 1.0040
v  -0.5019 -9.0162 0.8694
v  0.5021 -9.0162 0.8694
v  0.5513 7.1461 0.9546
v  0.0003 7.1461 1.1023
v  0.0003 -9.0163 -1.0041
v  0.5021 -9.0162 -0.8697
v  -0.5019 -9.0162 -0.8697
v  0.8697 -9.0162 0.5020
v  0.9548 6.8016 0.5510
v  0.5513 6.8015 0.9547
v  0.9548 7.1460 0.5512
v  1.1026 6.8015 -0.0001
v  0.9548 6.8016 -0.5514
v  0.5513 6.8015 -0.9548
v  -0.8693 -9.0162 0.5020
v  0.0003 6.8016 -1.1026
v  -0.5510 6.8015 -0.9548
v  -0.5510 7.1462 -0.9548
v  -0.5510 7.1461 0.9546
v  0.0003 7.1460 -1.1025
v  0.5513 7.1462 -0.9548
v  -0.9546 6.8016 0.5510
v  -0.5510 6.8015 0.9547
v  0.0003 6.8016 1.1023
v  0.0003 41.2270 1.8542
v  0.0003 49.6877 2.4297
v  -0.3041 48.0812 1.2087
v  -0.3041 41.2269 0.7419
v  0.0003 21.2202 1.2736
v  0.0003 7.6514 1.2177
v  0.3046 21.2202 0.1616
v  0.0003 47.7857 -0.3501
v  0.0003 41.2270 -0.8015
v  0.0003 7.4644 -1.0118
v  -0.3041 7.4644 0.1065
v  0.0003 7.9335 -1.4377
v  0.0003 7.4646 1.0176
v  0.3046 7.4644 0.1065
v  -0.3041 31.2233 0.3679
v  0.0003 31.2233 1.4800
v  0.3046 31.2233 0.3679
v  0.3046 41.2269 0.7419
v  -0.3041 21.2202 0.1616
v  0.3046 48.0812 1.2087
v  0.0003 21.2203 -1.3817
v  0.0003 49.1992 0.9767
v  0.0003 31.2233 -1.1755
v  -1.2797 7.1461 -1.3363
v  1.2799 7.1461 -1.3363
v  0.8131 7.1461 -3.0831
v  -0.8128 7.1461 -3.0831
v  1.3911 6.8015 -0.0001
v  1.2799 6.8016 -1.3362
v  1.3911 7.1462 -0.0001
v  -1.2797 6.8016 1.3362
v  -1.2797 6.8016 -1.3362
v  0.3218 6.8015 3.4836
v  0.3218 7.1463 3.4838
v  -0.3215 7.1463 3.4838
v  -0.3215 6.8015 3.4836
v  1.2799 7.1461 1.3363
v  -1.3907 6.8015 -0.0001
v  -1.3907 7.1462 -0.0001
v  0.6325 6.8015 3.3632
v  0.6325 7.1462 3.3630
v  1.2799 6.8016 1.3362
v  -0.8128 6.8017 3.0830
v  0.8131 6.8017 3.0830
v  -0.6321 7.1462 3.3630
v  -0.8128 7.1461 3.0830
v  -0.6321 6.8015 3.3632
v  -0.6320 7.1462 -3.3631
v  -0.3215 7.1462 -3.4839
v  -0.3215 6.8015 -3.4838
v  -0.6320 6.8016 -3.3631
v  -0.8128 6.8016 -3.0832
v  0.8131 6.8016 -3.0832
v  0.8131 7.1461 3.0830
v  0.6325 7.1462 -3.3631
v  0.3218 7.1462 -3.4839
v  0.3218 6.8015 -3.4838
v  0.6325 6.8016 -3.3631
v  -1.2797 7.1461 1.3363
# 107 vertices

vn 0.0000 1.0000 0.0002
vn 0.0000 1.0000 -0.0003
vn 0.0000 1.0000 -0.0000
vn 0.0000 1.0000 0.0000
vn 0.0000 1.0000 0.0007
vn 0.0000 1.0000 0.0003
vn 0.0000 1.0000 -0.0002
vn 0.0000 -1.0000 0.0001
vn 0.9984 0.0557 0.0000
vn 0.8647 0.0554 -0.4992
vn 0.8647 0.0554 -0.4993
vn -0.9984 0.0559 0.0000
vn -0.8646 0.0562 0.4992
vn -0.8646 0.0560 0.4992
vn -0.9984 0.0557 0.0000
vn -0.8660 -0.0062 -0.5000
vn -0.8661 -0.0062 -0.4999
vn -1.0000 -0.0062 -0.0000
vn -1.0000 -0.0062 0.0000
vn -0.8647 0.0558 -0.4993
vn -0.8648 0.0559 -0.4991
vn 0.0000 1.0000 -0.0007
vn 0.0000 -1.0000 -0.0000
vn 0.4993 0.0555 0.8647
vn 0.0001 0.0554 0.9985
vn 0.0000 -1.0000 0.0007
vn 0.0000 -1.0000 -0.0002
vn 0.8660 -0.0062 0.5001
vn 0.8660 -0.0062 0.5000
vn 0.5001 -0.0062 0.8660
vn 0.5000 -0.0062 0.8660
vn 0.8647 0.0557 0.4992
vn 0.8646 0.0556 0.4993
vn 1.0000 -0.0062 -0.0000
vn 1.0000 -0.0062 0.0000
vn 0.8659 -0.0062 -0.5001
vn 0.8660 -0.0062 -0.5000
vn 0.5000 -0.0062 -0.8660
vn 0.5001 -0.0062 -0.8660
vn 0.0001 -0.0062 -1.0000
vn -0.5000 -0.0062 -0.8660
vn -0.4999 -0.0062 -0.8660
vn -0.4991 0.0554 -0.8648
vn -0.4992 0.0555 -0.8647
vn -0.4993 0.0557 0.8647
vn -0.4992 0.0557 0.8647
vn 0.0001 0.0555 -0.9985
vn 0.0001 0.0557 -0.9984
vn 0.4993 0.0553 -0.8647
vn 0.4992 0.0552 -0.8647
vn -0.8660 -0.0062 0.4999
vn -0.8661 -0.0062 0.4999
vn -0.5000 -0.0062 0.8660
vn 0.0001 -0.0062 1.0000
vn -0.9644 -0.0141 0.2640
vn -0.9888 0.1183 0.0909
vn -0.9966 0.0828 0.0009
vn -0.9994 -0.0016 0.0339
vn 0.9645 -0.0033 0.2639
vn 0.9569 -0.0878 0.2768
vn 0.9994 -0.0004 0.0350
vn -0.9769 0.0660 -0.2032
vn -0.9811 0.0102 -0.1935
vn -0.9386 -0.2319 -0.2555
vn -0.9987 -0.0407 0.0322
vn -0.9764 -0.0540 -0.2089
vn 0.8981 -0.3215 0.3000
vn 0.9987 -0.0407 0.0322
vn 0.9386 -0.2319 -0.2554
vn 0.9765 -0.0540 -0.2088
vn -0.9994 -0.0010 0.0350
vn -0.9645 -0.0077 0.2640
vn 0.9645 -0.0077 0.2639
vn 0.9994 -0.0010 0.0350
vn 0.9994 -0.0016 0.0339
vn 0.9645 -0.0140 0.2639
vn -0.9645 -0.0033 0.2640
vn -0.9994 -0.0004 0.0350
vn -0.9569 -0.0878 0.2769
vn 0.9966 0.0828 0.0009
vn 0.9888 0.1183 0.0908
vn 0.9811 0.0024 -0.1934
vn 0.9769 0.0660 -0.2032
vn 0.9628 0.2339 -0.1357
vn 0.9811 0.0102 -0.1934
vn 0.9811 0.0056 -0.1934
vn -0.9627 0.2340 -0.1357
vn -0.9811 0.0056 -0.1935
vn -0.9811 0.0024 -0.1935
vn -0.8981 -0.3216 0.3001
vn -0.0000 1.0000 -0.0000
vn 0.0000 1.0000 0.0001
vn 1.0000 -0.0000 -0.0000
vn 0.9852 -0.0000 -0.1712
vn 1.0000 0.0000 -0.0000
vn -0.0000 -1.0000 0.0002
vn -0.0000 -1.0000 0.0001
vn 0.0000 -1.0000 0.0000
vn -0.0000 -1.0000 -0.0000
vn -0.0000 -1.0000 -0.0002
vn 0.1838 -0.0006 0.9830
vn 0.1840 -0.0003 0.9829
vn -0.1844 -0.0006 0.9829
vn -0.1841 -0.0003 0.9829
vn 0.0000 1.0000 -0.0001
vn -0.0002 1.0000 0.0000
vn -1.0000 -0.0000 -0.0000
vn -1.0000 0.0000 -0.0000
vn -0.9852 -0.0000 -0.1712
vn 0.6319 0.0001 0.7750
vn 0.6322 0.0005 0.7748
vn -0.0001 1.0000 -0.0004
vn 0.9852 -0.0000 0.1712
vn -0.6320 0.0001 0.7750
vn -0.9142 -0.0000 0.4052
vn -0.9143 0.0001 0.4051
vn -0.6317 0.0005 0.7752
vn -0.6320 -0.0000 -0.7750
vn -0.1844 -0.0003 -0.9828
vn -0.1844 -0.0002 -0.9829
vn -0.6319 0.0000 -0.7751
vn 0.9143 0.0001 -0.4051
vn 0.9143 0.0001 -0.4050
vn 0.9144 0.0000 0.4049
vn 0.9143 0.0001 0.4050
vn -0.0000 -1.0000 0.0000
vn 0.0000 -1.0000 0.0002
vn 0.1843 -0.0002 -0.9829
vn 0.1842 -0.0003 -0.9829
vn 0.6322 0.0000 -0.7748
vn 0.6321 -0.0000 -0.7749
vn -0.9142 0.0001 -0.4053
vn 0.0002 1.0000 0.0000
vn -0.0000 1.0000 -0.0001
vn -0.9852 -0.0000 0.1712
vn 0.0001 1.0000 -0.0004
vn 0.0000 1.0000 -0.0004
vn 0.0000 1.0000 -0.0008
vn 0.0000 -1.0000 -0.0006
vn 0.0000 -1.0000 0.0008
vn -0.0001 -1.0000 -0.0000
vn -0.0000 -1.0000 -0.0001
vn -0.0001 1.0000 0.0001
vn -0.0000 1.0000 0.0002
vn 0.0001 -1.0000 -0.0000
vn 0.0001 1.0000 0.0001
# 146 vertex normals

vt 0.6860 0.3821 0.0000
vt 0.6743 0.3577 0.0000
vt 0.6722 0.2933 0.0000
vt 0.6837 0.2695 0.0000
vt 0.6999 0.2608 0.0000
vt 0.7021 0.3920 0.0000
vt 0.7323 0.3270 0.0000
vt 0.7298 0.3596 0.0000
vt 0.7277 0.2951 0.0000
vt 0.7182 0.3833 0.0000
vt 0.7161 0.2707 0.0000
vt 0.8982 0.1504 0.0000
vt 0.8939 0.1768 0.0000
vt 0.8428 0.1744 0.0000
vt 0.8393 0.1476 0.0000
vt 0.7013 0.2479 0.0000
vt 0.7212 0.2612 0.0000
vt 0.7007 0.4049 0.0000
vt 0.6808 0.3916 0.0000
vt 0.0009 0.2685 0.0000
vt 0.5737 0.2685 0.0000
vt 0.5737 0.3019 0.0000
vt 0.0009 0.3019 0.0000
vt 0.7212 0.3941 0.0000
vt 0.6696 0.3258 0.0000
vt 0.8695 0.0956 0.0000
vt 0.8841 0.1035 0.0000
vt 0.8547 0.1021 0.0000
vt 0.6660 0.2872 0.0000
vt 0.6612 0.3248 0.0000
vt 0.8679 0.2022 0.0000
vt 0.8533 0.1944 0.0000
vt 0.8828 0.1958 0.0000
vt 0.5737 0.0673 0.0000
vt 0.0009 0.0673 0.0000
vt 0.0009 0.0340 0.0000
vt 0.5737 0.0340 0.0000
vt 0.6808 0.2587 0.0000
vt 0.5737 0.1009 0.0000
vt 0.0009 0.1009 0.0000
vt 0.0009 0.1345 0.0000
vt 0.5737 0.1345 0.0000
vt 0.5737 0.1680 0.0000
vt 0.0009 0.1680 0.0000
vt 0.8946 0.1236 0.0000
vt 0.8436 0.1211 0.0000
vt 0.5737 0.2015 0.0000
vt 0.0009 0.2015 0.0000
vt 0.5737 0.2350 0.0000
vt 0.0009 0.2350 0.0000
vt 0.7359 0.3655 0.0000
vt 0.6665 0.3621 0.0000
vt 0.7408 0.3280 0.0000
vt 0.7355 0.2907 0.0000
vt 0.5737 0.3355 0.0000
vt 0.0009 0.3355 0.0000
vt 0.5737 0.3690 0.0000
vt 0.0009 0.3690 0.0000
vt 0.5737 0.4019 0.0000
vt 0.0009 0.4019 0.0000
vt 0.0009 0.0019 0.0000
vt 0.5737 0.0019 0.0000
vt 0.7963 0.7528 0.0000
vt 0.9958 0.7096 0.0000
vt 0.9582 0.7871 0.0000
vt 0.7970 0.8250 0.0000
vt 0.3254 0.5972 0.0000
vt 0.0057 0.5787 0.0000
vt 0.3260 0.5250 0.0000
vt 0.9528 0.8833 0.0000
vt 0.7980 0.9206 0.0000
vt 0.0016 0.9769 0.0000
vt 0.0019 0.9044 0.0000
vt 0.0136 0.9994 0.0000
vt 0.0004 0.5693 0.0000
vt 0.0019 0.5063 0.0000
vt 0.0016 0.4337 0.0000
vt 0.0136 0.4112 0.0000
vt 0.5616 0.8609 0.0000
vt 0.5609 0.7888 0.0000
vt 0.5609 0.6219 0.0000
vt 0.5616 0.5496 0.0000
vt 0.7970 0.5856 0.0000
vt 0.7963 0.6578 0.0000
vt 0.3254 0.8134 0.0000
vt 0.3260 0.8856 0.0000
vt 0.0057 0.8319 0.0000
vt 0.9582 0.6234 0.0000
vt 0.9958 0.7010 0.0000
vt 0.3268 0.4294 0.0000
vt 0.9528 0.5273 0.0000
vt 0.9856 0.6103 0.0000
vt 0.7980 0.4899 0.0000
vt 0.5624 0.4541 0.0000
vt 0.9856 0.8003 0.0000
vt 0.5624 0.9565 0.0000
vt 0.3268 0.9811 0.0000
vt 0.0009 0.8407 0.0000
vt 0.7487 0.4097 0.0000
vt 0.7487 0.2464 0.0000
vt 0.8076 0.2777 0.0000
vt 0.8078 0.3776 0.0000
vt 0.7052 0.0276 0.0000
vt 0.6612 0.0354 0.0000
vt 0.6591 0.0146 0.0000
vt 0.7057 0.0071 0.0000
vt 0.7335 0.1484 0.0000
vt 0.7463 0.1925 0.0000
vt 0.7203 0.1734 0.0000
vt 0.6848 0.1732 0.0000
vt 0.6583 0.1907 0.0000
vt 0.6726 0.1478 0.0000
vt 0.8166 0.0990 0.0000
vt 0.8276 0.0960 0.0000
vt 0.8268 0.1437 0.0000
vt 0.8159 0.1376 0.0000
vt 0.6741 0.0796 0.0000
vt 0.6872 0.0546 0.0000
vt 0.6533 0.2431 0.0000
vt 0.7024 0.2004 0.0000
vt 0.7019 0.2210 0.0000
vt 0.6557 0.2105 0.0000
vt 0.8132 0.0809 0.0000
vt 0.8226 0.0715 0.0000
vt 0.7519 0.0176 0.0000
vt 0.7492 0.0373 0.0000
vt 0.8040 0.1652 0.0000
vt 0.8056 0.0701 0.0000
vt 0.8201 0.1678 0.0000
vt 0.8088 0.1826 0.0000
vt 0.8119 0.1551 0.0000
vt 0.5851 0.1569 0.0000
vt 0.5802 0.1333 0.0000
vt 0.5908 0.1288 0.0000
vt 0.5942 0.1471 0.0000
vt 0.6020 0.1578 0.0000
vt 0.6036 0.0628 0.0000
vt 0.5988 0.0453 0.0000
vt 0.8114 0.0524 0.0000
vt 0.8171 0.2886 0.0000
vt 0.8212 0.3076 0.0000
vt 0.8214 0.3472 0.0000
vt 0.8174 0.3664 0.0000
vt 0.7228 0.0549 0.0000
vt 0.7349 0.0801 0.0000
vt 0.5805 0.0831 0.0000
vt 0.5912 0.0907 0.0000
vt 0.5875 0.0597 0.0000
vt 0.5954 0.0730 0.0000
vt 0.5962 0.1757 0.0000
vt 0.6533 0.4063 0.0000
vt 0.7484 0.2135 0.0000
vt 0.5849 0.3642 0.0000
vt 0.5807 0.3452 0.0000
vt 0.5806 0.3056 0.0000
vt 0.5847 0.2864 0.0000
vt 0.5942 0.2752 0.0000
vt 0.5943 0.3750 0.0000
vt 0.7051 0.0450 0.0000
vt 0.7384 0.1145 0.0000
vt 0.6691 0.1136 0.0000
vt 0.7014 0.2322 0.0000
vt 0.7025 0.1830 0.0000
vt 0.7007 0.4207 0.0000
# 164 texture coords

g Katana_LODC
s 1
f 1/1/1 2/2/2 3/3/2 
f 3/3/2 4/4/1 1/1/1 
f 5/5/3 6/6/4 1/1/1 
f 1/1/1 4/4/1 5/5/3 
f 7/7/5 8/8/6 9/9/6 
f 10/10/7 11/11/7 9/9/6 
f 9/9/6 8/8/6 10/10/7 
f 11/11/7 10/10/7 6/6/4 
f 6/6/4 5/5/3 11/11/7 
s 4
f 12/12/8 13/13/8 14/14/8 
f 14/14/8 15/15/8 12/12/8 
s 2
f 16/16/9 17/17/10 11/11/11 
f 11/11/11 5/5/9 16/16/9 
f 18/18/12 19/19/13 1/1/14 
f 1/1/14 6/6/15 18/18/12 
s 3
f 20/20/16 13/21/17 12/22/18 
f 12/22/18 21/23/19 20/20/16 
s 2
f 18/18/12 6/6/15 10/10/20 
f 10/10/20 22/24/21 18/18/12 
s 1
f 3/3/2 2/2/2 23/25/22 
s 4
f 24/26/23 25/27/23 26/28/23 
s 2
f 27/29/24 3/3/24 23/25/25 
f 23/25/25 28/30/25 27/29/24 
s 4
f 29/31/26 30/32/27 31/33/27 
s 3
f 32/34/28 33/35/29 34/36/30 
f 34/36/30 26/37/31 32/34/28 
s 2
f 4/4/32 35/38/33 16/16/9 
f 16/16/9 5/5/9 4/4/32 
s 3
f 32/34/28 15/39/34 36/40/35 
f 36/40/35 33/35/29 32/34/28 
f 37/41/36 36/40/35 15/39/34 
f 15/39/34 14/42/37 37/41/36 
s 4
f 31/33/27 30/32/27 14/14/8 
f 14/14/8 13/13/8 31/33/27 
s 3
f 37/41/36 14/42/37 30/43/38 
f 30/43/38 38/44/39 37/41/36 
s 4
f 25/27/23 39/45/23 32/46/23 
f 32/46/23 26/28/23 25/27/23 
s 3
f 30/43/38 29/47/40 40/48/40 
f 40/48/40 38/44/39 30/43/38 
f 29/47/40 31/49/41 41/50/42 
f 41/50/42 40/48/40 29/47/40 
s 2
f 10/10/20 8/8/43 42/51/44 
f 42/51/44 22/24/21 10/10/20 
s 3
f 20/20/16 41/50/42 31/49/41 
f 31/49/41 13/21/17 20/20/16 
s 2
f 1/1/14 19/19/13 43/52/45 
f 43/52/45 2/2/46 1/1/14 
f 7/7/47 44/53/48 42/51/44 
f 42/51/44 8/8/43 7/7/47 
s 4
f 12/12/8 15/15/8 32/46/23 
f 32/46/23 39/45/23 12/12/8 
s 2
f 11/11/11 17/17/10 45/54/49 
f 45/54/49 9/9/50 11/11/11 
f 43/52/45 28/30/25 23/25/25 
f 23/25/25 2/2/46 43/52/45 
f 3/3/24 27/29/24 35/38/33 
f 35/38/33 4/4/32 3/3/24 
s 3
f 12/22/18 39/55/51 46/56/52 
f 46/56/52 21/23/19 12/22/18 
f 25/57/53 47/58/53 46/56/52 
f 46/56/52 39/55/51 25/57/53 
f 25/57/53 24/59/54 48/60/54 
f 48/60/54 47/58/53 25/57/53 
f 34/36/30 48/61/54 24/62/54 
f 24/62/54 26/37/31 34/36/30 
s 2
f 7/7/47 9/9/50 45/54/49 
f 45/54/49 44/53/48 7/7/47 
s 1
f 49/63/55 50/64/56 51/65/57 
f 51/65/57 52/66/58 49/63/55 
s 2
f 53/67/59 54/68/60 55/69/61 
s 1
f 52/66/58 51/65/57 56/70/62 
f 56/70/62 57/71/63 52/66/58 
f 58/72/64 59/73/65 60/74/66 
s 2
f 61/75/67 62/76/68 54/68/60 
f 58/77/69 60/78/70 62/76/68 
s 1
f 52/66/58 63/79/71 64/80/72 
f 64/80/72 49/63/55 52/66/58 
s 2
f 64/81/73 65/82/74 66/83/75 
f 66/83/75 49/84/76 64/81/73 
s 1
f 53/85/77 67/86/78 54/87/79 
s 2
f 66/83/75 68/88/80 50/89/81 
f 50/89/81 49/84/76 66/83/75 
f 69/90/82 55/69/61 60/78/70 
f 56/91/83 70/92/84 68/88/80 
f 56/91/83 68/88/80 66/83/75 
f 66/83/75 57/93/85 56/91/83 
f 71/94/86 57/93/85 66/83/75 
f 66/83/75 65/82/74 71/94/86 
s 1
f 50/64/56 70/95/87 51/65/57 
s 2
f 70/92/84 50/89/81 68/88/80 
s 1
f 67/86/78 53/85/77 64/80/72 
f 64/80/72 63/79/71 67/86/78 
s 2
f 55/69/61 69/90/82 71/94/86 
f 71/94/86 65/82/74 55/69/61 
f 65/82/74 64/81/73 53/67/59 
f 53/67/59 55/69/61 65/82/74 
s 1
f 63/79/71 71/96/88 69/97/89 
f 69/97/89 67/86/78 63/79/71 
f 57/71/63 71/96/88 63/79/71 
f 63/79/71 52/66/58 57/71/63 
f 70/95/87 56/70/62 51/65/57 
f 67/86/78 59/73/65 54/87/79 
f 67/86/78 69/97/89 60/74/66 
f 59/73/65 67/86/78 60/74/66 
s 2
f 62/76/68 55/69/61 54/68/60 
f 60/78/70 55/69/61 62/76/68 
s 1
f 59/73/65 61/98/90 54/87/79 
f 72/99/3 73/100/91 74/101/92 
f 74/101/92 75/102/92 72/99/3 
s 2
f 76/103/93 77/104/94 73/105/94 
f 73/105/94 78/106/95 76/103/93 
s 4
f 47/107/96 79/108/97 46/109/98 
f 20/110/23 80/111/99 41/112/100 
s 2
f 81/113/101 82/114/102 83/115/103 
f 83/115/103 84/116/104 81/113/101 
s 4
f 38/117/27 77/104/23 37/118/99 
s 1
f 27/29/105 85/119/91 35/38/106 
s 2
f 86/120/107 87/121/108 72/122/109 
f 72/122/109 80/111/109 86/120/107 
f 88/123/110 89/124/111 82/114/102 
f 82/114/102 81/113/101 88/123/110 
s 1
f 17/17/91 73/100/91 45/54/112 
s 2
f 85/125/113 90/126/113 76/103/93 
f 76/103/93 78/106/95 85/125/113 
s 4
f 91/127/27 79/108/97 90/126/8 
f 90/126/8 92/128/27 91/127/27 
s 2
f 93/129/114 94/130/115 91/127/116 
f 91/127/116 95/131/117 93/129/114 
f 96/132/118 97/133/119 98/134/120 
f 98/134/120 99/135/121 96/132/118 
s 4
f 77/104/23 80/111/99 100/136/23 
f 100/136/23 101/137/23 77/104/23 
s 2
f 73/105/94 77/104/94 101/137/122 
f 101/137/122 74/138/123 73/105/94 
f 88/123/110 92/128/124 102/139/125 
f 102/139/125 89/124/111 88/123/110 
s 1
f 103/140/6 104/141/3 97/142/3 
f 97/142/3 96/143/6 103/140/6 
s 4
f 33/144/126 90/126/8 34/145/127 
s 2
f 98/134/120 97/133/119 104/146/128 
f 104/146/128 105/147/129 98/134/120 
f 104/146/128 103/148/130 106/149/131 
f 106/149/131 105/147/129 104/146/128 
f 93/129/114 95/131/117 84/116/104 
f 84/116/104 83/115/103 93/129/114 
f 96/132/118 99/135/121 100/136/132 
f 100/136/132 75/150/132 96/132/118 
f 74/138/123 101/137/122 106/149/131 
f 106/149/131 103/148/130 74/138/123 
s 1
f 19/19/133 107/151/3 43/52/134 
s 2
f 94/130/115 107/152/135 79/108/135 
f 79/108/135 91/127/116 94/130/115 
f 90/126/113 85/125/113 102/139/125 
f 102/139/125 92/128/124 90/126/113 
f 100/136/132 80/111/109 72/122/109 
f 72/122/109 75/150/132 100/136/132 
f 107/152/135 87/121/108 86/120/107 
f 86/120/107 79/108/135 107/152/135 
s 1
f 42/51/136 72/99/3 22/24/3 
f 93/153/137 83/154/138 82/155/138 
f 82/155/138 89/156/137 93/153/137 
s 4
f 95/131/139 88/123/139 81/113/23 
f 81/113/23 84/116/23 95/131/139 
f 99/135/8 98/134/140 105/147/140 
f 105/147/140 106/149/8 99/135/8 
s 1
f 102/157/105 85/119/91 107/151/3 
f 107/151/3 94/158/105 102/157/105 
s 4
f 76/103/141 90/126/8 33/144/126 
f 33/144/126 36/159/98 76/103/141 
f 79/108/97 48/160/97 90/126/8 
f 76/103/141 36/159/98 37/118/99 
f 37/118/99 77/104/23 76/103/141 
f 77/104/23 40/161/142 80/111/99 
s 1
f 35/38/106 85/119/91 78/162/143 
f 78/162/143 16/16/92 35/38/106 
f 27/29/105 28/30/4 85/119/91 
f 78/162/143 73/100/91 17/17/91 
f 17/17/91 16/16/92 78/162/143 
f 72/99/3 44/53/144 73/100/91 
s 4
f 86/120/145 21/163/98 46/109/98 
f 46/109/98 79/108/97 86/120/145 
f 20/110/23 21/163/98 86/120/145 
f 86/120/145 80/111/99 20/110/23 
f 101/137/23 100/136/23 99/135/8 
f 99/135/8 106/149/8 101/137/23 
s 1
f 103/140/6 96/143/6 75/102/92 
f 75/102/92 74/101/92 103/140/6 
f 22/24/3 72/99/3 87/164/146 
f 87/164/146 18/18/92 22/24/3 
f 19/19/133 18/18/92 87/164/146 
f 87/164/146 107/151/3 19/19/133 
f 89/156/137 102/157/105 94/158/105 
f 94/158/105 93/153/137 89/156/137 
s 4
f 92/128/27 88/123/139 95/131/139 
f 95/131/139 91/127/27 92/128/27 
s 1
f 72/99/3 42/51/136 44/53/144 
f 44/53/144 45/54/112 73/100/91 
f 28/30/4 43/52/134 107/151/3 
f 28/30/4 107/151/3 85/119/91 
s 4
f 48/160/97 34/145/127 90/126/8 
f 79/108/97 47/107/96 48/160/97 
f 77/104/23 38/117/27 40/161/142 
f 40/161/142 41/112/100 80/111/99 
# 204 faces

